<svg width="404" height="404" viewBox="0 0 404 404" fill="none" xmlns="http://www.w3.org/2000/svg">
<path d="M188 17.3205C196.663 12.3188 207.337 12.3188 216 17.3205L354.937 97.5359C363.6 102.538 368.937 111.781 368.937 121.785V282.215C368.937 292.219 363.6 301.462 354.937 306.464L216 386.68C207.337 391.681 196.663 391.681 188 386.68L49.0629 306.464C40.3996 301.462 35.0629 292.219 35.0629 282.215V121.785C35.0629 111.781 40.3996 102.538 49.0629 97.5359L188 17.3205Z" stroke="#DBE2EC" stroke-width="16"/>
<path d="M202.166 201.546V192.847C196.526 192.847 192.595 191.704 190.372 189.418C188.116 187.098 186.988 183.337 186.988 178.135V165.46C186.988 159.86 186.292 155.271 184.898 151.692C183.472 148.113 181.398 145.33 178.678 143.342C175.957 141.354 172.64 139.978 168.725 139.216C164.811 138.421 160.365 138.023 155.389 138.023V151.841C159.303 151.841 162.306 152.388 164.396 153.481C166.486 154.542 167.929 156.182 168.725 158.402C169.488 160.622 169.87 163.455 169.87 166.902V183.205C169.87 185.756 170.301 188.142 171.164 190.362C172.026 192.582 173.602 194.537 175.891 196.227C178.18 197.884 181.448 199.193 185.694 200.154C189.908 201.082 195.398 201.546 202.166 201.546ZM155.389 264.322C160.365 264.322 164.811 263.925 168.725 263.129C172.64 262.367 175.957 260.992 178.678 259.004C181.398 257.016 183.472 254.232 184.898 250.653C186.292 247.075 186.988 242.485 186.988 236.885V224.26C186.988 219.058 188.116 215.314 190.372 213.027C192.595 210.708 196.526 209.548 202.166 209.548V200.85C195.398 200.85 189.908 201.33 185.694 202.291C181.448 203.219 178.18 204.528 175.891 206.218C173.602 207.875 172.026 209.813 171.164 212.033C170.301 214.253 169.87 216.623 169.87 219.141V235.444C169.87 238.89 169.488 241.723 168.725 243.943C167.929 246.163 166.486 247.82 164.396 248.914C162.306 250.007 159.303 250.554 155.389 250.554V264.322ZM202.166 209.548V192.847H186.391V209.548H202.166Z" fill="#3553F3"/>
<path d="M202.166 201.546V192.847C207.725 192.847 211.6 191.704 213.791 189.418C216.015 187.098 217.127 183.337 217.127 178.135V165.46C217.127 159.86 217.814 155.271 219.187 151.692C220.593 148.113 222.637 145.33 225.319 143.342C228 141.354 231.27 139.978 235.129 139.216C238.988 138.421 243.37 138.023 248.275 138.023V151.841C244.416 151.841 241.457 152.388 239.397 153.481C237.336 154.542 235.914 156.182 235.129 158.402C234.377 160.622 234.001 163.455 234.001 166.902V183.205C234.001 185.756 233.576 188.142 232.726 190.362C231.875 192.582 230.322 194.537 228.066 196.227C225.809 197.884 222.588 199.193 218.402 200.154C214.249 201.082 208.837 201.546 202.166 201.546ZM248.275 264.322C243.37 264.322 238.988 263.925 235.129 263.129C231.27 262.367 228 260.992 225.319 259.004C222.637 257.016 220.593 254.232 219.187 250.653C217.814 247.075 217.127 242.485 217.127 236.885V224.26C217.127 219.058 216.015 215.314 213.791 213.027C211.6 210.708 207.725 209.548 202.166 209.548V200.85C208.837 200.85 214.249 201.33 218.402 202.291C222.588 203.219 225.809 204.528 228.066 206.218C230.322 207.875 231.875 209.813 232.726 212.033C233.576 214.253 234.001 216.623 234.001 219.141V235.444C234.001 238.89 234.377 241.723 235.129 243.943C235.914 246.163 237.336 247.82 239.397 248.914C241.457 250.007 244.416 250.554 248.275 250.554V264.322ZM202.166 209.548V192.847H217.716V209.548H202.166Z" fill="#3553F3"/>
<path d="M212.858 138.358C212.858 144.078 208.22 148.716 202.5 148.716C196.779 148.716 192.142 144.078 192.142 138.358C192.142 132.637 196.779 128 202.5 128C208.22 128 212.858 132.637 212.858 138.358Z" fill="#3553F3"/>
<path d="M212.858 264.657C212.858 270.377 208.22 275.014 202.5 275.014C196.779 275.014 192.142 270.377 192.142 264.657C192.142 258.936 196.779 254.299 202.5 254.299C208.22 254.299 212.858 258.936 212.858 264.657Z" fill="#3553F3"/>
<path fill-rule="evenodd" clip-rule="evenodd" d="M258.299 146.711C260.513 146.711 262.308 144.916 262.308 142.701C262.308 140.487 260.513 138.692 258.299 138.692C256.084 138.692 254.289 140.487 254.289 142.701C254.289 144.916 256.084 146.711 258.299 146.711ZM258.299 157.403C266.418 157.403 273 150.821 273 142.701C273 134.582 266.418 128 258.299 128C250.179 128 243.597 134.582 243.597 142.701C243.597 150.821 250.179 157.403 258.299 157.403Z" fill="#3553F3"/>
<path fill-rule="evenodd" clip-rule="evenodd" d="M146.701 146.711C148.916 146.711 150.711 144.916 150.711 142.701C150.711 140.487 148.916 138.692 146.701 138.692C144.487 138.692 142.692 140.487 142.692 142.701C142.692 144.916 144.487 146.711 146.701 146.711ZM146.701 157.403C154.821 157.403 161.403 150.821 161.403 142.701C161.403 134.582 154.821 128 146.701 128C138.582 128 132 134.582 132 142.701C132 150.821 138.582 157.403 146.701 157.403Z" fill="#3553F3"/>
<path fill-rule="evenodd" clip-rule="evenodd" d="M146.701 258.309C148.916 258.309 150.711 256.513 150.711 254.299C150.711 252.085 148.916 250.29 146.701 250.29C144.487 250.29 142.692 252.085 142.692 254.299C142.692 256.513 144.487 258.309 146.701 258.309ZM146.701 269.001C154.821 269.001 161.403 262.418 161.403 254.299C161.403 246.18 154.821 239.598 146.701 239.598C138.582 239.598 132 246.18 132 254.299C132 262.418 138.582 269.001 146.701 269.001Z" fill="#3553F3"/>
<path fill-rule="evenodd" clip-rule="evenodd" d="M258.299 258.309C260.513 258.309 262.308 256.513 262.308 254.299C262.308 252.085 260.513 250.29 258.299 250.29C256.084 250.29 254.289 252.085 254.289 254.299C254.289 256.513 256.084 258.309 258.299 258.309ZM258.299 269.001C266.418 269.001 273 262.418 273 254.299C273 246.18 266.418 239.598 258.299 239.598C250.179 239.598 243.597 246.18 243.597 254.299C243.597 262.418 250.179 269.001 258.299 269.001Z" fill="#3553F3"/>
</svg>
